<svg xmlns="http://www.w3.org/2000/svg" width="512" height="512" viewBox="0 0 512 512">
  <g fill="none">
    <rect width="512" height="512" fill="#2196F3"/>
    <path fill="#FFF" d="M203.398438,353.003906 L203.398438,342.339844 C201.028646,342.066406 196.904297,341.063802 191.025391,339.332031 C185.146484,337.60026 181.067708,335.777344 178.789062,333.863281 C175.416667,331.128906 172.978516,326.822266 171.474609,320.943359 C169.970703,315.064453 169.21875,306.473958 169.21875,295.171875 L169.21875,295.171875 L169.21875,177.183594 L218.300781,310.484375 C220.30599,315.861979 222.926432,323.016927 226.162109,331.949219 C229.397786,340.88151 231.425781,346.851562 232.246094,349.859375 L232.246094,349.859375 L249.472656,349.859375 L316.191406,179.371094 L316.191406,324.292969 C316.191406,327.938802 315.46224,330.946615 314.003906,333.316406 C312.545573,335.686198 310.130208,337.554688 306.757812,338.921875 C305.117188,339.651042 302.041016,340.334635 297.529297,340.972656 C293.017578,341.610677 289.21224,342.066406 286.113281,342.339844 L286.113281,342.339844 L286.113281,353.003906 L391.25,353.003906 L391.25,342.339844 C388.971354,342.066406 385.758464,341.565104 381.611328,340.835938 C377.464193,340.106771 374.479167,339.332031 372.65625,338.511719 C369.101562,336.871094 366.754557,334.934245 365.615234,332.701172 C364.475911,330.468099 363.90625,327.710938 363.90625,324.429688 L363.90625,324.429688 L363.90625,187.027344 C363.90625,183.928385 364.475911,181.102865 365.615234,178.550781 C366.754557,175.998698 369.101562,174.130208 372.65625,172.945312 C375.572917,172.033854 378.626302,171.304688 381.816406,170.757812 C385.00651,170.210938 388.059896,169.846354 390.976562,169.664062 L390.976562,169.664062 L390.976562,159 L304.980469,159 C304.889323,160.640625 304.205729,164.104167 302.929688,169.390625 C301.653646,174.677083 300.332031,179.234375 298.964844,183.0625 L298.964844,183.0625 L258.632812,287.105469 L210.78125,159 L121.503906,159 L121.503906,169.664062 C125.423177,169.9375 129.296875,170.484375 133.125,171.304688 C136.953125,172.125 140.690104,173.947917 144.335938,176.773438 C147.252604,179.052083 149.440104,182.128255 150.898438,186.001953 C152.356771,189.875651 153.085938,194.729167 153.085938,200.5625 L153.085938,200.5625 L153.085938,296.675781 C153.085938,307.886719 152.447917,316.522786 151.171875,322.583984 C149.895833,328.645182 147.434896,332.951823 143.789062,335.503906 C140.507812,337.873698 136.292318,339.537109 131.142578,340.494141 C125.992839,341.451172 122.278646,342.066406 120,342.339844 L120,342.339844 L120,353.003906 L203.398438,353.003906 Z"/>
  </g>
</svg>
