<svg xmlns="http://www.w3.org/2000/svg" width="512" height="512" viewBox="0 0 512 512">
  <g fill="none">
    <rect width="512" height="512" fill="#FFD034"/>
    <path fill="#000" d="M313.92,397.24 L313.92,365.74 L297.54,365.74 C291.94,365.74 287.39,365.53 283.89,365.11 C280.39,364.69 277.66,363.78 275.7,362.38 C273.74,360.98 272.41,359.02 271.71,356.5 C271.01,353.98 270.66,350.62 270.66,346.42 L270.66,211.6 L313.92,211.6 L313.92,180.1 L270.66,180.1 L270.66,115 L234.96,115 L234.96,180.1 L198,180.1 L198,211.6 L234.96,211.6 L234.96,349.78 C234.96,359.86 235.94,367.98 237.9,374.14 C239.86,380.3 242.87,385.06 246.93,388.42 C250.99,391.78 256.31,394.09 262.89,395.35 C269.47,396.61 277.38,397.24 286.62,397.24 L313.92,397.24 Z"/>
  </g>
</svg>
